<svg xmlns="http://www.w3.org/2000/svg" width="9" height="10" viewBox="0 0 9 10">
    <path fill="#000" fill-rule="evenodd" d="M3.548 9.069c.28.124.588.208.894.208 1.458 0 2.404-.592 2.404-2.18 0-.404-.051-.827-.262-1.173-.595-.976-1.451-1.028-2.48-1.028-.192 0-.467 0-.646.065 0 .69-.006 1.38-.006 2.064 0 .449-.058 1.666.096 2.044zm-.09-4.857c.23.04.467.046.697.046 1.317 0 2.256-.378 2.256-1.882 0-1.27-1.106-1.705-2.173-1.705-.281 0-.556.039-.831.084 0 .658.051 1.315.051 1.973 0 .345-.006.69-.006 1.035 0 .15 0 .3.006.45zM0 10l.013-.612c.409-.104.824-.11 1.22-.28.224-.384.192-1.061.192-1.497 0-.144.013-6.368-.14-6.673C1.189.748.249.703.038.677L.013.136C1.534.11 3.055 0 4.57 0c.288 0 .582.007.87.007 1.444 0 3.036.703 3.036 2.395 0 1.166-.87 1.602-1.77 2.019C7.92 4.7 9 5.54 9 6.908c0 2.24-2 2.981-3.874 2.981-.562 0-1.125-.039-1.687-.039-1.144 0-2.301.104-3.439.15z"/>
</svg>
