<svg xmlns="http://www.w3.org/2000/svg" width="11" height="10" viewBox="0 0 11 10">
    <path fill="#000" fill-rule="evenodd" d="M10.683 10c.231 0 .317-.267.317-.456 0-.566-.712-.3-1.049-.508-.21-.13-.224-.696-.224-.911l-.006-6.14c0-.234.006-.904.23-1.048.33-.201 1.01.085 1.01-.481 0-.196-.093-.456-.33-.456-.567 0-1.135.046-1.702.046C8.35.046 7.77 0 7.19 0c-.238 0-.33.26-.33.456 0 .553.659.293.989.488.23.137.23.8.23 1.042l-.006 2.083c0 .072 0 .137-.007.208-.085.02-.171.02-.25.02h-4.61c-.086 0-.171 0-.257-.02-.007-.071-.007-.136-.007-.208l-.006-2.083c0-.235 0-.905.23-1.042.324-.202.976.072.976-.488C4.141.26 4.05 0 3.811 0c-.553 0-1.114.046-1.668.046C1.537.046.923 0 .317 0 .086 0 0 .267 0 .456c0 .586.706.273 1.035.475.297.176.251 1.178.251 1.49v5.294l.007.37c0 .229-.007.789-.218.932-.323.221-.93-.013-.93.553 0 .183.099.43.317.43.56 0 1.12-.046 1.681-.046.607 0 1.22.046 1.834.046.23 0 .323-.26.323-.456 0-.586-.778-.293-1.121-.501-.244-.143-.244-.82-.244-1.068L2.94 5.56c0-.072 0-.137.007-.202.105-.032.224-.026.336-.026h4.452c.105 0 .224-.006.33.026.006.065.006.13.006.202l.007 2.545c0 .228 0 .775-.218.912-.343.221-1.002-.026-1.002.553 0 .19.105.43.33.43.58 0 1.16-.046 1.74-.046.587 0 1.174.046 1.754.046z"/>
</svg>
