<svg xmlns="http://www.w3.org/2000/svg" width="7" height="10" viewBox="0 0 7 10">
    <path fill-rule="evenodd" d="M0 9.987c.602-.033 1.196-.13 1.805-.13.465 0 .936.006 1.408.013.39.006.793.13 1.183.13.15 0 .293-.02.444-.02a3.53 3.53 0 0 0 .11-.644c-.425-.065-.848-.11-1.265-.202l-.007-.117c-.028-.274.307-1.57.376-1.882.362-1.673.8-3.359 1.128-5.045.068-.371.102-.755.253-1.107C5.899.807 6.398.736 6.87.58 6.925.391 6.973.195 7 0c-.725.04-1.45.104-2.174.104C3.938.104 3.042.04 2.16 0l-.13.67c.41.066.868.014 1.244.209v.163c.02.52-1.47 6.907-1.558 7.35-.048.228-.123.469-.28.657-.41.202-.882.254-1.32.385L0 9.987z"/>
</svg>
