<svg xmlns="http://www.w3.org/2000/svg" width="12" height="12" viewBox="0 0 12 12">
    <path fill-rule="evenodd" d="M2.472 10.842c0-.464-.298-.814-.75-.922l.642-.774v-.592H.114v1.023h.717V9.22c.216 0 .439-.013.655-.013v.007c-.29.262-.514.605-.757.915l.176.377c.277-.02.709 0 .709.377 0 .269-.25.383-.486.383-.257 0-.534-.134-.716-.302l-.385.592c.304.303.736.444 1.162.444.702 0 1.283-.417 1.283-1.158zm.013-4.22h-.709v.404H.918c.02-.525 1.486-.747 1.486-1.743 0-.666-.54-1.036-1.168-1.036-.513 0-.973.262-1.195.727l.574.397c.114-.189.31-.39.547-.39.222 0 .364.12.364.35C1.526 5.895 0 6.083 0 7.328c0 .121.02.243.04.364h2.445v-1.07zM12 8.77a.217.217 0 0 0-.216-.215H3.572a.213.213 0 0 0-.216.215v1.293c0 .114.095.215.216.215h8.212a.222.222 0 0 0 .216-.215V8.769zM2.492 2.72h-.73V0h-.715L.128.855l.48.511c.128-.114.263-.215.337-.363H.96v.08c0 .546-.007 1.09-.007 1.636H.23v.666h2.262V2.72zM12 5.324a.217.217 0 0 0-.216-.216H3.572a.213.213 0 0 0-.216.216v1.292c0 .114.095.215.216.215h8.212A.222.222 0 0 0 12 6.616V5.324zm0-3.446a.222.222 0 0 0-.216-.216H3.572a.217.217 0 0 0-.216.216V3.17c0 .114.095.215.216.215h8.212A.222.222 0 0 0 12 3.17V1.878z"/>
</svg>
