<svg xmlns="http://www.w3.org/2000/svg" width="14" height="15" viewBox="0 0 14 15">
    <path fill="#6B6F74" fill-rule="evenodd" d="M7 .875c.966 0 1.875.182 2.728.547a7.024 7.024 0 0 1 2.228 1.497 7.024 7.024 0 0 1 1.497 2.228C13.818 6 14 6.91 14 7.875c0 .966-.182 1.875-.547 2.728a7.024 7.024 0 0 1-1.497 2.228 7.024 7.024 0 0 1-2.228 1.497A6.861 6.861 0 0 1 7 14.875a6.861 6.861 0 0 1-2.728-.547 7.024 7.024 0 0 1-2.228-1.497 7.024 7.024 0 0 1-1.497-2.228A6.861 6.861 0 0 1 0 7.875C0 6.909.182 6 .547 5.147A7.024 7.024 0 0 1 2.044 2.92a7.024 7.024 0 0 1 2.228-1.497A6.861 6.861 0 0 1 7 .875zm0 13.139c.848 0 1.643-.162 2.386-.486a6.181 6.181 0 0 0 1.941-1.319 6.324 6.324 0 0 0 1.313-1.948 5.909 5.909 0 0 0 .485-2.386c0-.848-.162-1.643-.485-2.386a6.24 6.24 0 0 0-1.313-1.941 6.24 6.24 0 0 0-1.941-1.313A5.909 5.909 0 0 0 7 1.75c-.848 0-1.643.162-2.386.485a6.24 6.24 0 0 0-1.941 1.313A6.24 6.24 0 0 0 1.36 5.489a5.909 5.909 0 0 0-.485 2.386c0 .848.162 1.643.485 2.386a6.324 6.324 0 0 0 1.313 1.948 6.181 6.181 0 0 0 1.941 1.32A5.909 5.909 0 0 0 7 14.013zm-.643-2.201v-1.108h1.094v1.107H6.357zm.63-7.876c.355 0 .667.044.936.13.269.087.503.221.704.404.191.173.335.385.43.635.096.251.144.536.144.855 0 .237-.032.46-.096.67a2.55 2.55 0 0 1-.273.601 7.25 7.25 0 0 1-.444.568 10.87 10.87 0 0 1-.554.595c-.1.1-.18.193-.24.28a.763.763 0 0 0-.115.24c-.019.072-.032.17-.042.293-.009.123-.013.262-.013.417H6.37c0-.255.011-.472.034-.65.023-.177.057-.316.103-.416.036-.1.111-.217.225-.349.114-.132.262-.28.445-.444.173-.21.323-.395.45-.554.129-.16.229-.294.302-.403a1.45 1.45 0 0 0 .164-.376 1.67 1.67 0 0 0 .054-.445c0-.182-.025-.346-.075-.492a.95.95 0 0 0-.225-.369c-.1-.1-.221-.178-.363-.232a1.38 1.38 0 0 0-.499-.082 1.42 1.42 0 0 0-.45.068c-.138.045-.26.114-.37.205-.118.082-.205.228-.26.437-.054.21-.082.401-.082.575H4.813l-.014-.041c-.01-.283.036-.58.137-.889.1-.31.255-.551.464-.725.21-.173.447-.3.711-.382.265-.082.556-.123.875-.123z"/>
</svg>
