<svg xmlns="http://www.w3.org/2000/svg" width="12" height="9" viewBox="0 0 12 9">
    <path fill-rule="evenodd" d="M2.571 7.773c0-.678-.575-1.228-1.285-1.228S0 7.095 0 7.773C0 8.45.576 9 1.286 9c.71 0 1.285-.55 1.285-1.227zm0-3.273c0-.678-.575-1.227-1.285-1.227S0 3.823 0 4.5c0 .678.576 1.227 1.286 1.227.71 0 1.285-.55 1.285-1.227zM12 7.16c0-.11-.1-.205-.214-.205H3.643c-.114 0-.214.095-.214.204v1.227c0 .109.1.205.214.205h8.143c.114 0 .214-.096.214-.205V7.16zM2.571 1.226C2.571.55 1.996 0 1.286 0S0 .55 0 1.227c0 .678.576 1.228 1.286 1.228.71 0 1.285-.55 1.285-1.228zM12 3.887c0-.11-.1-.205-.214-.205H3.643c-.114 0-.214.096-.214.204v1.228c0 .108.1.204.214.204h8.143c.114 0 .214-.096.214-.204V3.886zm0-3.273c0-.109-.1-.205-.214-.205H3.643c-.114 0-.214.096-.214.205V1.84c0 .109.1.204.214.204h8.143c.114 0 .214-.095.214-.204V.614z"/>
</svg>
