<svg xmlns="http://www.w3.org/2000/svg" width="16" height="16" viewBox="0 0 16 16">
    <path fill="#6B6F74" fill-rule="evenodd" d="M1 13.984V15h11v1H1a.961.961 0 0 1-.703-.297A.961.961 0 0 1 0 15v-1.5c0-.281.167-.518.5-.71l.5-.29 4.39-2.078a3.839 3.839 0 0 1-.89-1.008 6.642 6.642 0 0 1-.586-1.21 6.635 6.635 0 0 1-.32-1.212A6.45 6.45 0 0 1 3.5 6V3.5c0-.417.13-.833.39-1.25.261-.417.605-.792 1.032-1.125A5.666 5.666 0 0 1 6.367.312 4.477 4.477 0 0 1 8 0c.552 0 1.096.104 1.633.313a5.53 5.53 0 0 1 1.437.812c.422.333.766.708 1.032 1.125.265.417.398.833.398 1.25V6c0 .302-.031.651-.094 1.047a6.8 6.8 0 0 1-.312 1.21 5.953 5.953 0 0 1-.578 1.188c-.24.38-.532.711-.875.992l1.328.61-.25 1-1.5-.703a1.012 1.012 0 0 1-.578-.797c-.01-.177.015-.344.078-.5.062-.156.161-.292.297-.406.541-.417.924-1.008 1.148-1.774.224-.765.336-1.388.336-1.867V3.5c0-.27-.104-.552-.313-.844a3.68 3.68 0 0 0-.804-.804 4.69 4.69 0 0 0-1.117-.61A3.477 3.477 0 0 0 8 1c-.427 0-.849.08-1.266.242a4.683 4.683 0 0 0-1.125.617c-.333.25-.601.521-.804.813-.203.292-.305.568-.305.828V6c0 .49.122 1.115.367 1.875s.628 1.349 1.149 1.766a.992.992 0 0 1 .375.906 1.012 1.012 0 0 1-.578.781l-4.391 2.078c-.063.021-.149.073-.258.156-.11.084-.164.224-.164.422zM15.5 13a.48.48 0 0 1 .352.148.48.48 0 0 1 .148.352.48.48 0 0 1-.148.352.48.48 0 0 1-.352.148H14v1.5a.48.48 0 0 1-.148.352.48.48 0 0 1-.352.148.48.48 0 0 1-.352-.148A.48.48 0 0 1 13 15.5V14h-1.5a.48.48 0 0 1-.352-.148A.48.48 0 0 1 11 13.5a.48.48 0 0 1 .148-.352A.48.48 0 0 1 11.5 13H13v-1.5a.48.48 0 0 1 .148-.352A.48.48 0 0 1 13.5 11a.48.48 0 0 1 .352.148.48.48 0 0 1 .148.352V13h1.5z"/>
</svg>
