<?xml version="1.0" encoding="utf-8"?>
<!-- Generator: Adobe Illustrator 19.0.1, SVG Export Plug-In . SVG Version: 6.00 Build 0)  -->
<svg version="1.1" id="Layer_1" xmlns="http://www.w3.org/2000/svg" xmlns:xlink="http://www.w3.org/1999/xlink" x="0px" y="0px"
	 viewBox="0 0 40 40" style="enable-background:new 0 0 40 40;" xml:space="preserve">
<g>
	<g>
		<path d="M5.1,8.9c3,4,4.6,8.5,6.6,13c2.3,5.1,5.2,10,8.1,14.8c1,1.7,4.2,1.6,4.6-0.6c1.8-10.6,5.3-20.6,10.7-29.9
			c1.6-2.8-2.7-5.3-4.3-2.5c-5.6,9.7-9.4,20.1-11.2,31.1c1.5-0.2,3-0.4,4.6-0.6c-2.9-4.8-5.8-9.6-8.1-14.8c-2-4.5-3.7-9-6.6-13
			C7.5,3.8,3.2,6.3,5.1,8.9L5.1,8.9z"/>
	</g>
</g>
</svg>
