<?xml version="1.0" encoding="utf-8"?>
<!-- Generator: Adobe Illustrator 19.0.1, SVG Export Plug-In . SVG Version: 6.00 Build 0)  -->
<svg version="1.1" id="Layer_1" xmlns="http://www.w3.org/2000/svg" xmlns:xlink="http://www.w3.org/1999/xlink" x="0px" y="0px"
	 viewBox="0 0 40 40" style="enable-background:new 0 0 40 40;" xml:space="preserve">
<g>
	<g>
		<path d="M3.4,6.7C5,16.4,6.1,26.2,6.9,36c0.2,2.6,4.4,3.6,4.9,0.7c1.1-6.4,5.4-10.5,8.6-15.9c2.4-4,2.2-8.6,2-13.1
			c-1.7,0-3.3,0-5,0c0.6,9.1,0.9,18.5,2.8,27.4c0.7,3.1,5.5,1.8,4.8-1.3c-1.9-8.5-2-17.5-2.6-26.1c-0.2-3.2-5.2-3.2-5,0
			c0.1,2.5,0.3,5-0.2,7.5c-0.5,2.8-2.3,4.8-3.9,7.1c-2.9,4.1-5.4,8.1-6.3,13.1c1.6,0.2,3.3,0.4,4.9,0.7c-0.8-10.3-2-20.5-3.6-30.7
			C7.7,2.2,2.9,3.5,3.4,6.7L3.4,6.7z"/>
	</g>
</g>
</svg>
